<svg width="94" height="92" viewBox="0 0 94 92" fill="none" xmlns="http://www.w3.org/2000/svg">
<ellipse cx="46.9758" cy="45.9999" rx="46.7939" ry="45.7692" fill="#E9F9EE" fill-opacity="0.5"/>
<path d="M47.6443 29.0128C41.5012 29.0128 36.5172 34.0106 36.5172 40.1706C36.5172 46.3306 41.5012 51.3283 47.6443 51.3283C53.7873 51.3283 58.7713 46.3306 58.7713 40.1706C58.7713 34.0106 53.7873 29.0128 47.6443 29.0128ZM47.6443 45.7495C44.5727 45.7495 42.0807 43.2506 42.0807 40.1706C42.0807 37.0906 44.5727 34.5917 47.6443 34.5917C50.7158 34.5917 53.2078 37.0906 53.2078 40.1706C53.2078 43.2506 50.7158 45.7495 47.6443 45.7495ZM47.6443 17.8551C31.7651 17.8551 18.8994 30.7562 18.8994 46.6793C18.8994 62.6023 31.7651 75.5034 47.6443 75.5034C63.5235 75.5034 76.3891 62.6023 76.3891 46.6793C76.3891 30.7562 63.5235 17.8551 47.6443 17.8551ZM47.6443 69.9246C41.8837 69.9246 36.6215 67.7976 32.5648 64.2992C34.2918 61.626 37.2474 59.8129 40.6319 59.7083C43.0428 60.4521 45.3377 60.824 47.6443 60.824C49.9508 60.824 52.2458 60.4637 54.6566 59.7083C58.0411 59.8245 60.9967 61.626 62.7237 64.2992C58.667 67.7976 53.4048 69.9246 47.6443 69.9246ZM66.5023 60.1499C63.6742 56.5004 59.3045 54.1178 54.3205 54.1178C53.1382 54.1178 51.3069 55.2335 47.6443 55.2335C43.9932 55.2335 42.1503 54.1178 40.968 54.1178C35.9956 54.1178 31.626 56.5004 28.7863 60.1499C26.074 56.3493 24.4629 51.7003 24.4629 46.6793C24.4629 33.8595 34.8598 23.434 47.6443 23.434C60.4288 23.434 70.8256 33.8595 70.8256 46.6793C70.8256 51.7003 69.2145 56.3493 66.5023 60.1499Z" fill="#8C8888"/>
</svg>
