<svg width="30" height="30" viewBox="0 0 30 30" fill="none" xmlns="http://www.w3.org/2000/svg">
<rect width="30" height="30" rx="2" fill="#FEF3F1"/>
<path d="M13.3125 13.875V18.375C13.3125 18.5242 13.3718 18.6673 13.4773 18.7727C13.5827 18.8782 13.7258 18.9375 13.875 18.9375C14.0242 18.9375 14.1673 18.8782 14.2727 18.7727C14.3782 18.6673 14.4375 18.5242 14.4375 18.375V13.875C14.4375 13.7258 14.3782 13.5827 14.2727 13.4773C14.1673 13.3718 14.0242 13.3125 13.875 13.3125C13.7258 13.3125 13.5827 13.3718 13.4773 13.4773C13.3718 13.5827 13.3125 13.7258 13.3125 13.875Z" fill="#FD683E"/>
<path d="M16.125 13.3125C16.2742 13.3125 16.4173 13.3718 16.5227 13.4773C16.6282 13.5827 16.6875 13.7258 16.6875 13.875V18.375C16.6875 18.5242 16.6282 18.6673 16.5227 18.7727C16.4173 18.8782 16.2742 18.9375 16.125 18.9375C15.9758 18.9375 15.8327 18.8782 15.7273 18.7727C15.6218 18.6673 15.5625 18.5242 15.5625 18.375V13.875C15.5625 13.7258 15.6218 13.5827 15.7273 13.4773C15.8327 13.3718 15.9758 13.3125 16.125 13.3125Z" fill="#FD683E"/>
<path d="M17.25 10.5H20.625C20.7742 10.5 20.9173 10.5593 21.0227 10.6648C21.1282 10.7702 21.1875 10.9133 21.1875 11.0625C21.1875 11.2117 21.1282 11.3548 21.0227 11.4602C20.9173 11.5657 20.7742 11.625 20.625 11.625H20.0029L19.1569 19.248C19.0805 19.936 18.753 20.5716 18.2372 21.0332C17.7214 21.4949 17.0535 21.7501 16.3612 21.75H13.6388C12.9465 21.7501 12.2786 21.4949 11.7628 21.0332C11.247 20.5716 10.9195 19.936 10.8431 19.248L9.996 11.625H9.375C9.22582 11.625 9.08274 11.5657 8.97725 11.4602C8.87176 11.3548 8.8125 11.2117 8.8125 11.0625C8.8125 10.9133 8.87176 10.7702 8.97725 10.6648C9.08274 10.5593 9.22582 10.5 9.375 10.5H12.75C12.75 9.90326 12.9871 9.33097 13.409 8.90901C13.831 8.48705 14.4033 8.25 15 8.25C15.5967 8.25 16.169 8.48705 16.591 8.90901C17.0129 9.33097 17.25 9.90326 17.25 10.5ZM15 9.375C14.7016 9.375 14.4155 9.49353 14.2045 9.7045C13.9935 9.91548 13.875 10.2016 13.875 10.5H16.125C16.125 10.2016 16.0065 9.91548 15.7955 9.7045C15.5845 9.49353 15.2984 9.375 15 9.375ZM11.1289 11.625L11.9614 19.1243C12.0073 19.537 12.2038 19.9182 12.5133 20.1951C12.8228 20.472 13.2235 20.6251 13.6388 20.625H16.3612C16.7763 20.6248 17.1767 20.4716 17.486 20.1947C17.7952 19.9179 17.9916 19.5368 18.0375 19.1243L18.8723 11.625H11.13H11.1289Z" fill="#FD683E"/>
</svg>
