<svg width="30" height="30" viewBox="0 0 30 30" fill="none" xmlns="http://www.w3.org/2000/svg">
<path d="M12.1875 13.125V20.625C12.1875 20.8736 12.2863 21.1121 12.4621 21.2879C12.6379 21.4637 12.8764 21.5625 13.125 21.5625C13.3736 21.5625 13.6121 21.4637 13.7879 21.2879C13.9637 21.1121 14.0625 20.8736 14.0625 20.625V13.125C14.0625 12.8764 13.9637 12.6379 13.7879 12.4621C13.6121 12.2863 13.3736 12.1875 13.125 12.1875C12.8764 12.1875 12.6379 12.2863 12.4621 12.4621C12.2863 12.6379 12.1875 12.8764 12.1875 13.125Z" fill="#FD683E"/>
<path d="M16.875 12.1875C17.1236 12.1875 17.3621 12.2863 17.5379 12.4621C17.7137 12.6379 17.8125 12.8764 17.8125 13.125V20.625C17.8125 20.8736 17.7137 21.1121 17.5379 21.2879C17.3621 21.4637 17.1236 21.5625 16.875 21.5625C16.6264 21.5625 16.3879 21.4637 16.2121 21.2879C16.0363 21.1121 15.9375 20.8736 15.9375 20.625V13.125C15.9375 12.8764 16.0363 12.6379 16.2121 12.4621C16.3879 12.2863 16.6264 12.1875 16.875 12.1875Z" fill="#FD683E"/>
<path d="M18.75 7.5H24.375C24.6236 7.5 24.8621 7.59877 25.0379 7.77459C25.2137 7.9504 25.3125 8.18886 25.3125 8.4375C25.3125 8.68614 25.2137 8.9246 25.0379 9.10041C24.8621 9.27623 24.6236 9.375 24.375 9.375H23.3381L21.9281 22.08C21.8008 23.2266 21.255 24.286 20.3953 25.0554C19.5357 25.8248 18.4224 26.2501 17.2688 26.25H12.7312C11.5776 26.2501 10.4643 25.8248 9.60467 25.0554C8.74499 24.286 8.19924 23.2266 8.07187 22.08L6.66 9.375H5.625C5.37636 9.375 5.1379 9.27623 4.96209 9.10041C4.78627 8.9246 4.6875 8.68614 4.6875 8.4375C4.6875 8.18886 4.78627 7.9504 4.96209 7.77459C5.1379 7.59877 5.37636 7.5 5.625 7.5H11.25C11.25 6.50544 11.6451 5.55161 12.3483 4.84835C13.0516 4.14509 14.0054 3.75 15 3.75C15.9946 3.75 16.9484 4.14509 17.6516 4.84835C18.3549 5.55161 18.75 6.50544 18.75 7.5ZM15 5.625C14.5027 5.625 14.0258 5.82254 13.6742 6.17417C13.3225 6.52581 13.125 7.00272 13.125 7.5H16.875C16.875 7.00272 16.6775 6.52581 16.3258 6.17417C15.9742 5.82254 15.4973 5.625 15 5.625ZM8.54813 9.375L9.93562 21.8738C10.0122 22.5616 10.3397 23.1971 10.8555 23.6585C11.3713 24.12 12.0392 24.3751 12.7312 24.375H17.2688C17.9605 24.3746 18.6279 24.1193 19.1433 23.6579C19.6587 23.1965 19.9859 22.5613 20.0625 21.8738L21.4538 9.375H8.55H8.54813Z" fill="#FD683E"/>
</svg>
